<svg xmlns="http://www.w3.org/2000/svg" xmlns:xlink="http://www.w3.org/1999/xlink" width="500" zoomAndPan="magnify" viewBox="0 0 375 374.999991" height="500" preserveAspectRatio="xMidYMid meet" version="1.0"><defs><g/><clipPath id="7adac5d9a3"><path d="M 70.484375 206.730469 L 310.453125 206.730469 L 310.453125 216.761719 L 70.484375 216.761719 Z M 70.484375 206.730469 " clip-rule="nonzero"/></clipPath><clipPath id="2140442506"><path d="M 70.484375 206.730469 L 72.65625 216.761719 L 310.425781 207.273438 L 310.289062 206.730469 Z M 70.484375 206.730469 " clip-rule="nonzero"/></clipPath></defs><rect x="-37.5" width="450" fill="#ffffff" y="-37.499999" height="449.999989" fill-opacity="1"/><rect x="-37.5" width="450" fill="#ffffff" y="-37.499999" height="449.999989" fill-opacity="1"/><g fill="#f2f2f2" fill-opacity="1"><g transform="translate(75.891185, 197.639855)"><g><path d="M -0.21875 0 L 15.90625 -39.1875 L 25.3125 -39.1875 L 41.203125 0 L 32.421875 0 L 28.4375 -10.296875 L 12.265625 -10.296875 L 8.234375 0 Z M 14.78125 -16.796875 L 25.984375 -16.796875 L 20.4375 -31.234375 Z M 14.78125 -16.796875 "/></g></g></g><g fill="#f2f2f2" fill-opacity="1"><g transform="translate(115.404722, 197.639855)"><g><path d="M 0.171875 -6.21875 L 4.8125 -12.03125 C 7.09375 -10.050781 9.285156 -8.601562 11.390625 -7.6875 C 13.503906 -6.78125 15.734375 -6.328125 18.078125 -6.328125 C 20.503906 -6.328125 22.445312 -6.773438 23.90625 -7.671875 C 25.363281 -8.566406 26.09375 -9.757812 26.09375 -11.25 C 26.09375 -12.59375 25.597656 -13.632812 24.609375 -14.375 C 23.617188 -15.125 21.96875 -15.6875 19.65625 -16.0625 L 11.875 -17.40625 C 8.507812 -17.96875 5.957031 -19.144531 4.21875 -20.9375 C 2.488281 -22.726562 1.625 -25.039062 1.625 -27.875 C 1.625 -31.53125 3.015625 -34.421875 5.796875 -36.546875 C 8.578125 -38.679688 12.335938 -39.75 17.078125 -39.75 C 19.910156 -39.75 22.769531 -39.265625 25.65625 -38.296875 C 28.550781 -37.328125 31.082031 -35.984375 33.25 -34.265625 L 28.890625 -28.21875 C 26.796875 -29.820312 24.738281 -31.003906 22.71875 -31.765625 C 20.707031 -32.535156 18.640625 -32.921875 16.515625 -32.921875 C 14.347656 -32.921875 12.609375 -32.519531 11.296875 -31.71875 C 9.992188 -30.914062 9.34375 -29.84375 9.34375 -28.5 C 9.34375 -27.300781 9.769531 -26.363281 10.625 -25.6875 C 11.488281 -25.019531 12.929688 -24.535156 14.953125 -24.234375 L 22.34375 -23.015625 C 26.21875 -22.378906 29.132812 -21.132812 31.09375 -19.28125 C 33.050781 -17.4375 34.03125 -15.003906 34.03125 -11.984375 C 34.03125 -8.171875 32.53125 -5.125 29.53125 -2.84375 C 26.53125 -0.570312 22.523438 0.5625 17.515625 0.5625 C 14.390625 0.5625 11.300781 -0.03125 8.25 -1.21875 C 5.207031 -2.414062 2.515625 -4.082031 0.171875 -6.21875 Z M 0.171875 -6.21875 "/></g></g></g><g fill="#f2f2f2" fill-opacity="1"><g transform="translate(149.321377, 197.639855)"><g><path d="M 1 -32.015625 L 1 -39.1875 L 35.5 -39.1875 L 35.5 -32.015625 L 22.34375 -32.015625 L 22.34375 0 L 14.21875 0 L 14.21875 -32.015625 Z M 1 -32.015625 "/></g></g></g><g fill="#f2f2f2" fill-opacity="1"><g transform="translate(184.35741, 197.639855)"><g><path d="M 3.53125 0 L 3.53125 -39.1875 L 33.640625 -39.1875 L 33.640625 -32.140625 L 11.640625 -32.140625 L 11.640625 -23.171875 L 26.140625 -23.171875 L 26.140625 -16.34375 L 11.640625 -16.34375 L 11.640625 -7.046875 L 33.875 -7.046875 L 33.875 0 Z M 3.53125 0 "/></g></g></g><g fill="#f2f2f2" fill-opacity="1"><g transform="translate(219.001661, 197.639855)"><g><path d="M 23.125 -6.9375 C 25.175781 -6.9375 27.097656 -7.363281 28.890625 -8.21875 C 30.679688 -9.082031 32.265625 -10.316406 33.640625 -11.921875 L 38.96875 -6.65625 C 37.101562 -4.457031 34.722656 -2.703125 31.828125 -1.390625 C 28.929688 -0.0859375 25.953125 0.5625 22.890625 0.5625 C 19.941406 0.5625 17.191406 0.0390625 14.640625 -1 C 12.085938 -2.050781 9.875 -3.472656 8 -5.265625 C 6.132812 -7.054688 4.671875 -9.179688 3.609375 -11.640625 C 2.546875 -14.109375 2.015625 -16.757812 2.015625 -19.59375 C 2.015625 -22.425781 2.554688 -25.082031 3.640625 -27.5625 C 4.722656 -30.050781 6.195312 -32.191406 8.0625 -33.984375 C 9.925781 -35.773438 12.132812 -37.191406 14.6875 -38.234375 C 17.25 -39.285156 19.984375 -39.8125 22.890625 -39.8125 C 26.023438 -39.8125 29.066406 -39.144531 32.015625 -37.8125 C 34.972656 -36.488281 37.363281 -34.707031 39.1875 -32.46875 L 33.703125 -27.046875 C 32.316406 -28.753906 30.691406 -30.066406 28.828125 -30.984375 C 26.960938 -31.898438 24.984375 -32.359375 22.890625 -32.359375 C 21.140625 -32.359375 19.488281 -32.03125 17.9375 -31.375 C 16.394531 -30.726562 15.0625 -29.832031 13.9375 -28.6875 C 12.820312 -27.550781 11.945312 -26.207031 11.3125 -24.65625 C 10.675781 -23.113281 10.359375 -21.425781 10.359375 -19.59375 C 10.359375 -17.800781 10.679688 -16.128906 11.328125 -14.578125 C 11.984375 -13.035156 12.878906 -11.703125 14.015625 -10.578125 C 15.160156 -9.460938 16.503906 -8.578125 18.046875 -7.921875 C 19.597656 -7.265625 21.289062 -6.9375 23.125 -6.9375 Z M 23.125 -6.9375 "/></g></g></g><g fill="#f2f2f2" fill-opacity="1"><g transform="translate(257.731635, 197.639855)"><g><path d="M 3.53125 0 L 3.53125 -39.1875 L 11.640625 -39.1875 L 11.640625 -23.453125 L 29.671875 -23.453125 L 29.671875 -39.1875 L 37.796875 -39.1875 L 37.796875 0 L 29.671875 0 L 29.671875 -16.015625 L 11.640625 -16.015625 L 11.640625 0 Z M 3.53125 0 "/></g></g></g><g clip-path="url(#7adac5d9a3)"><g clip-path="url(#2140442506)"><path fill="#f2f2f2" d="M 70.484375 206.730469 L 310.414062 206.730469 L 310.414062 216.761719 L 70.484375 216.761719 Z M 70.484375 206.730469 " fill-opacity="1" fill-rule="nonzero"/></g></g></svg>